<?xml version="1.0" standalone="yes"?>
<svg width="203" height="186">
<path style="fill:#ffffff; stroke:none;" d="M0 0L0 160C18.4519 142.957 34.6379 134.795 60 138L70 99L80 104C77.2185 115.038 87.9617 125.782 99 123L104 133L71 141L61 144L64.956 156C65.8464 179.47 30.0424 181.593 28.6103 158C28.2941 152.79 30.6678 148.457 33 144C27.1968 145.587 6.28378 153.961 8.34568 161.986C9.66358 167.116 18.728 171.717 23 174.124C39.0321 183.157 58.7226 181.707 74 171.91C78.9335 168.746 85.2355 164.789 87 159L92 162C82.0787 176.075 64.0342 184.989 47 185C59.1695 190.107 80.7469 186 94 186L203 186L203 38C200.12 40.9698 195.8 48.9993 191 48.3688C185.793 47.6849 179.542 38.5422 176 35C171.583 30.5827 153.769 17.5547 154.631 11C155.209 6.60507 161.559 2.98912 165 1C152.355 -4.30614 129.777 0 116 0L0 0z"/>
<path style="fill:#010101; stroke:none;" d="M165 0.702927C140.067 9.13582 169.847 29.8471 179 39C182.049 42.0493 187.935 50.5771 192.999 48.8241C202.131 45.6631 204.81 32.2014 202.566 24C198.879 10.5202 178.924 -4.00662 165 0.702927z"/>
<path style="fill:#ffffff; stroke:none;" d="M180 0L202 23C204.704 16.5551 203 6.96777 203 0L180 0z"/>
<path style="fill:#010101; stroke:none;" d="M146 18.3457C139.666 19.9281 132.513 30.4873 128 35L84 79C81.547 81.4572 68.5042 96.7464 81.0046 95.534C87.7333 94.8813 95.4903 83.5097 100 79C116.262 62.7383 138.943 46.1465 151.623 27C154.052 23.3335 150.789 17.1493 146 18.3457M159 31.3449C152 33.0569 143.693 44.9056 138.834 49.9753C122.932 66.5676 102.323 81.6434 88.8796 100.285C84.0598 106.969 88.2537 116.82 97 116.216C104.906 115.67 111.756 105.258 117.025 100.169L153.025 64.169C158.618 58.7664 168.019 52.1783 171.263 45C173.365 40.3505 163.786 30.1744 159 31.3449M178 50.3457C171.968 51.8526 165.287 61.7127 161 66L118 109C115.502 111.498 99.6374 126.567 112.019 127.454C118.692 127.931 126.782 116.218 131 112C147.574 95.4265 170.701 78.513 183.623 59C186.052 55.3335 182.789 49.1493 178 50.3457M70 99C65.1539 110.41 61.8064 125.723 60 138C42.7394 134.796 26.2317 137.906 12 148.478C8.05249 151.411 -1.05087 157.005 1.28781 162.999C3.5734 168.858 11.8871 173.763 17 176.934C38.5493 190.303 79.7732 188.202 92 162L87 159C76.8414 179.062 45.7476 184.448 27 175.677C22.4084 173.529 9.05556 166.913 9.05556 161C9.05556 153.24 27.0845 146.295 33 144L28.6335 154C24.3133 180.283 66.3103 182.744 64.9599 155C64.7535 150.761 63.2211 147.535 61 144C73.3567 143.625 92.5474 137.864 104 133L99 123C87.9426 124.728 78.2718 115.057 80 104L70 99z"/>
<path style="fill:#ffffff; stroke:none;" d="M42.0008 144.742C25.7894 150.967 36.1629 175.346 51.9992 169.258C67.6501 163.241 57.8411 138.66 42.0008 144.742z"/>
<path style="fill:#010101; stroke:none;" d="M48 150L47 145C45.0098 145.361 33.0216 151.294 39.3372 153.249L48 150z"/>
<path style="fill:#ffffff; stroke:none;" d="M0 162L0 186L46 186L30 182.564C17.9568 178.19 9.25659 170.55 0 162z"/>
</svg>
